<svg width="270" height="48" viewBox="0 0 270 48" fill="none" xmlns="http://www.w3.org/2000/svg">
<path d="M0.478271 23.4138V46.8277H5.91305H11.3478L11.4348 38.3627L11.5652 29.9427L22.3478 29.8076L33.087 29.7176V24.9898V20.262L22.3478 20.1719L11.5652 20.0368L11.4348 15.174L11.3044 10.3561H23.3044H35.2609V5.17805V-7.62939e-06H17.8696H0.478271V23.4138Z" fill="white"/>
<path d="M42.5218 22.4683C37.5217 34.8056 33.3478 45.3418 33.2174 45.8821C33 46.8277 33.087 46.8277 39 46.7826H45.0435L46.7391 44.081C47.6522 42.5952 49.6087 40.3438 51.087 39.0831C55.5218 35.2108 63.3478 32.0139 68.3044 31.9689C69.7391 31.9689 69.9131 32.149 70.4348 33.6349C70.7826 34.5804 72 37.9124 73.1739 41.0643L75.3478 46.8277H81.3913C84.6957 46.8277 87.4348 46.6926 87.4348 46.4675C87.4348 46.2873 83.2609 35.7961 78.1304 23.1887L68.8696 0.225124L60.2174 0.0900459L51.5652 -7.62939e-06L42.5218 22.4683ZM63.3044 14.5886C64.8696 18.7761 66.087 22.4683 65.9565 22.8285C65.8261 23.1437 65.4348 23.4138 65.0435 23.4138C63.6087 23.4138 57.5218 26.2055 54.6522 28.1416C53 29.2673 51.5652 30.1228 51.5218 30.0327C51.3913 29.9427 54.6522 21.1175 59.6522 7.69954C59.8696 7.1142 60.1304 6.70896 60.2609 6.79901C60.3478 6.93409 61.7391 10.4462 63.3044 14.5886Z" fill="white"/>
<path d="M107.478 10.6713C104.435 18.7311 103.087 21.7929 101.957 23.0536C99.9131 25.44 100.087 25.8903 102.652 24.5395C105.087 23.2337 110.522 21.6578 117.391 20.217C123.304 19.0012 130 16.93 132.696 15.5342C135.043 14.2734 136.13 12.9226 136.13 11.2116C136.13 10.0409 136.13 10.0409 134.348 11.797C133.348 12.7876 132.391 13.4179 132.217 13.1928C132.087 13.0127 130.87 9.95089 129.565 6.43881L127.217 5.72205e-06H123.87C122 5.72205e-06 120.478 0.135086 120.478 0.315193C120.478 0.540325 121.348 4.18748 122.391 8.41998L124.304 16.2096L122.696 16.6148C118.696 17.6955 114.304 18.551 114.087 18.2808C113.957 18.1457 114.826 14.0033 116 9.00533L118.217 5.72205e-06H114.826H111.478L107.478 10.6713Z" fill="white"/>
<path d="M151 23.2788L151.13 46.6026L156.696 46.7376L162.217 46.8727L162.261 28.5019C162.261 18.4159 162.391 10.4462 162.565 10.8064C162.696 11.1666 165.174 19.3615 168.087 29.0422L173.304 46.6026L181.217 46.7376L189.13 46.8277L189.957 44.036C190.391 42.4601 192.826 34.3103 195.304 25.8903L199.826 10.5813L200.043 28.5919L200.261 46.6026L205.826 46.7376L211.348 46.8727V23.4138V1.14441e-05H201.609C192.696 1.14441e-05 191.87 0.0450401 191.696 0.765465C188.739 12.3373 181.565 39.0381 181.348 39.2632C181.217 39.4883 178.739 30.7532 175.87 19.9018L170.652 0.225147L160.783 0.090065L150.913 1.14441e-05L151 23.2788Z" fill="white"/>
<path d="M224.913 21.7028C220.087 33.6799 215.87 44.2161 215.478 45.1167L214.826 46.8277H220.913H227L228.13 44.9365C231.957 38.7229 239.348 33.815 247.043 32.4192C251.913 31.5186 251.609 31.2485 254.609 39.3983L257.304 46.6025L263.478 46.7376C266.826 46.7826 269.609 46.7826 269.609 46.6476C269.609 46.5125 254 7.65451 251.783 2.34137L250.826 -7.62939e-06H242.261H233.652L224.913 21.7028ZM248 22.1531C248.087 22.8735 247.478 23.2337 245.043 24.0442C241.696 25.1699 238.696 26.7008 235.696 28.772C234.652 29.5374 233.696 30.0778 233.652 29.9877C233.478 29.8526 241.565 7.92467 242.087 7.06917C242.348 6.57388 247.826 20.5772 248 22.1531Z" fill="white"/>
<path d="M137.13 14.6336C135.739 16.8399 131.087 19.0012 123.957 20.7122C107.304 24.8096 104 25.7102 101.826 26.8809C99.3913 28.1866 97.4348 30.483 97.4348 32.0589C97.4348 32.8244 97.6087 32.7794 99.3043 31.6087C102 29.6725 106.348 28.1866 116.696 25.6651C130.217 22.3782 134.087 20.9824 136.391 18.686C138.043 17.0651 138.304 16.5698 138.304 14.9488C138.304 13.9132 138.261 13.0577 138.217 13.0577C138.13 13.0577 137.652 13.7781 137.13 14.6336Z" fill="white"/>
<path d="M138.826 19.3614C136.348 22.4683 132.261 23.9541 112 28.9971C108.652 29.8526 104.783 30.9783 103.391 31.5186C98.8696 33.2746 95.2609 36.9218 95.2609 39.7135V41.0192L96.7826 39.3983C99.2609 36.8768 102.87 35.3008 111.87 32.8244C123.043 29.8076 131.435 27.2861 134.522 26.1154C138.696 24.4945 140.696 22.063 140.391 19.0012L140.261 17.6054L138.826 19.3614Z" fill="white"/>
<path d="M136.348 27.6013C135.87 27.8715 133.826 28.6369 131.783 29.3123C129.261 30.1678 128.087 30.7532 128.13 31.2485C128.174 31.6087 128.957 35.0307 129.87 38.858L131.522 45.8371L134.348 46.1523C135.913 46.3324 138.87 46.7376 140.87 47.0978C142.87 47.4581 144.609 47.6832 144.696 47.5481C144.87 47.413 137.609 27.5113 137.304 27.1511C137.261 27.106 136.826 27.2861 136.348 27.6013Z" fill="white"/>
<path d="M104.826 37.0569C98.4348 39.3532 95.8696 41.4695 94.2609 45.8821L93.5652 47.8182L94.7392 47.5931C95.3913 47.458 98.3479 46.9627 101.348 46.5575C104.348 46.1523 106.87 45.747 106.913 45.657C107.044 45.5669 109.609 36.0663 109.609 35.6611C109.609 35.3909 108.696 35.6611 104.826 37.0569Z" fill="white"/>
</svg>
